<?xml version="1.0" encoding="utf-8"?>
<!-- Generator: Adobe Illustrator 19.1.0, SVG Export Plug-In . SVG Version: 6.00 Build 0)  -->
<svg version="1.1" id="Layer_1" xmlns="http://www.w3.org/2000/svg" xmlns:xlink="http://www.w3.org/1999/xlink" x="0px" y="0px"
	 viewBox="0 0 352.5 46.4" style="enable-background:new 0 0 352.5 46.4;" xml:space="preserve">
<style type="text/css">
	.Arched_x0020_Green{fill:url(#SVGID_1_);stroke:#FFFFFF;stroke-width:0.25;stroke-miterlimit:1;}
	.st0{fill:#04A64B;}
	.st1{fill:#133478;}
</style>
<linearGradient id="SVGID_1_" gradientUnits="userSpaceOnUse" x1="-153.0234" y1="777.1616" x2="-152.3163" y2="776.4545">
	<stop  offset="0" style="stop-color:#1DA238"/>
	<stop  offset="0.9831" style="stop-color:#24391D"/>
</linearGradient>
<path class="st0" d="M345.4,0.1c-3.2,0-5.9,0.8-7.8,5.8l-11.5,30.2c-0.4,1-0.8,1.7-1.2,1.7c-0.4,0-0.8-0.7-1.2-1.7L312.2,5.9
	c-1.9-5.1-4.6-5.8-7.8-5.8c-1.3,0-7.2,0.1-7.2,6v24.9v1.8v3.1v8.3c0,1,0.8,1.8,1.8,1.8h4.8c1,0,1.8-0.8,1.8-1.8l-0.1-8.3v-4.9h0
	l-0.1-20.3c0-0.2,0-1.4,0.7-1.4c0.4,0,0.9,1,1.1,1.5L318.6,41c1.6,4.3,2.9,5.4,6.3,5.4c3.7,0,4.8-1.4,6.3-5.4l11.3-30.2
	c0.2-0.5,0.6-1.5,1.1-1.5c0.3,0,0.8,0.1,0.8,1.4l-0.2,22.4c0,0,0,0,0,0v1.5c0,0.1,0,0.2,0,0.4l-0.1,9.2c0,1,0.8,1.8,1.8,1.8h4.8
	c1,0,1.8-0.8,1.8-1.8v-6.3v-4.3v-1.8v-2V6.1C352.5,1.9,349.5,0.1,345.4,0.1"/>
<path class="st1" d="M28.1,36.7c2-2.3,2.1-5.6,2.1-7.9v-26c0-1.3,1-2.3,2.2-2.3h3.9c1.2,0,2.2,1,2.2,2.3v24.9c0,1.3-0.1,3.3-0.1,4.6
	c0,0-0.4,5.8-3.7,9.3c-4.4,4.7-11.4,4.9-15.4,4.9c-4.1,0-11-0.2-15.4-4.9C0.5,38.1,0,33.8,0,30V2.8c0-1.3,1-2.3,2.2-2.3h3.9
	c1.2,0,2.2,1,2.2,2.3v23.7c0,1.3,0,3.3,0,4.5c0,0,0,3.3,2.1,5.6c2.3,2.6,6.2,2.9,8.8,2.9C21.7,39.6,25.8,39.3,28.1,36.7"/>
<path class="st1" d="M53.2,10.1c0-0.8,0-1.6,0.6-2.1c0.6-0.6,1.4-0.6,2-0.6h13.5c1.4,0,3.6,0.1,5.1,1.5c0.8,1,1.4,2.8,1.4,6.1
	c0,1.5-0.1,4.4-0.9,5.9c-0.1,0.2-0.2,0.3-0.3,0.5c-1.5,1.7-3.6,1.7-5.4,1.7H53.2V10.1z M70,31.4c-0.7-0.7-1.3-1.3-1.6-1.6H74
	c2.6,0,5.1-0.8,6.8-2.2c3.5-2.9,3.9-8.7,3.9-12.4c0-3.8-0.3-8.9-3.4-11.9c-1-1-2.2-1.7-3.4-2.1c-1.6-0.6-3-0.7-3-0.7
	c-1.2,0-3.2-0.1-4.5-0.1H51.6c-1.6,0-3.7,0.3-5.3,1.8c-1.8,1.7-1.8,4-1.8,5.9v35.4c0,1.1,0.8,2.1,1.9,2.2c0.1,0,0.2,0,0.4,0h3.9h0.9
	c1,0,1.8-0.8,1.8-1.8v-3.2v-1v-1.8V37v-7.2H59c0.8,0.9,1.9,2.2,2.7,2.9l11.4,11.5c0.9,0.9,2.6,1.6,3.8,1.6H83c1.2,0,1.5-0.7,0.6-1.5
	L70,31.4z"/>
<path class="st1" d="M102.6,26.2c-0.5,1.2,0.2,2.1,1.4,2.1h12.6c1.2,0,1.9-0.9,1.4-2.1L112.4,12c-0.5-1.2-1.1-3-1.5-4h-0.6h-0.6
	c-0.4,1-1.1,2.8-1.5,4L102.6,26.2z M103,5.1c1.6-3.8,3.3-5.1,7.3-5.1c3.8,0,5.7,1.3,7.3,5.1l15.9,38.7c0.5,1.2-0.1,2.1-1.4,2.1h-4.4
	c-1.2,0-2.6-0.9-3.1-2.1l-2.9-7.3c-0.5-1.2-1.8-2.1-3.1-2.1h-16.9c-1.2,0-2.6,1-3.1,2.1l-2.8,7.2c-0.5,1.2-1.8,2.1-3.1,2.1h-4.4
	c-1.2,0-1.8-0.9-1.4-2.1L103,5.1z"/>
<path class="st1" d="M141.4,45.9c-1.5,0-3.1-0.3-4.1-1.2c-0.7-0.6-1.6-1.8-1.6-3.8V2.8c0-1.3,1-2.3,2.2-2.3h3.9c1.2,0,2.2,1,2.2,2.3
	v31.6c0,1.3,0,2.9-0.1,3.6l0.6,0.6c0.3,0.2,0.8,0.5,2.1,0.5h21.1c1.2,0,2.2,1,2.2,2.3v2.3c0,1.3-1,2.3-2.2,2.3H141.4z"/>
<path class="st0" d="M188.6,45.9c-4.3,0-10-0.6-14.1-5.3c-4.2-4.8-4.5-11.7-4.5-16.7c0-6.5,0.6-13.2,4.3-17.6
	c4.4-5.3,11.4-5.7,14.5-5.7h15.6c1.2,0,2.2,1,2.2,2.3v2.3c0,1.3-1,2.3-2.2,2.3h-9.4c-1.2,0-3.2,0-4.5,0.1c0,0-6.9,0.2-9.4,4.1
	c-1.3,2-2.5,5.5-2.5,12.2c0,6.8,1.2,9.6,2.1,11c2.3,3.6,6.3,4.3,11.6,4.3H205c1.2,0,2.2,1,2.2,2.3v2.3c0,1.3-1,2.3-2.2,2.3H188.6z"
	/>
<path class="st0" d="M252,43.6c0,1.3-1,2.3-2.2,2.3h-3.9c-1.2,0-2.2-1-2.2-2.3V28.2c0-1.3-1-2.3-2.2-2.3h-18.6c-1.2,0-2.2,1-2.2,2.3
	v15.4c0,1.3-1,2.3-2.2,2.3h-3.9c-1.2,0-2.2-1-2.2-2.3V2.8c0-1.3,1-2.3,2.2-2.3h3.9c1.2,0,2.2,1,2.2,2.3v14.1c0,1.3,1,2.3,2.2,2.3
	h18.6c1.2,0,2.2-1,2.2-2.3V2.8c0-1.3,1-2.3,2.2-2.3h3.9c1.2,0,2.2,1,2.2,2.3V43.6z"/>
<path class="st0" d="M264.6,45.9c-1.9,0-3.6,0-5.1-1.4c-1.5-1.5-1.6-3.6-1.6-5.3V9.3c0-1.2,0.2-3.3,0.3-4.5c0,0,0.2-1.4,1.2-2.5
	c1.5-1.6,3.6-1.7,5.3-1.7H291c1.2,0,2.2,1,2.2,2.3v2.3c0,1.3-1,2.3-2.2,2.3h-19.5c-1.2,0-3,0-3.9,0.1L267,8
	c-0.7,0.6-0.7,1.6-0.7,2.2V17c0,1.3,1,2.3,2.2,2.3h21.9c1.2,0,2.2,1,2.2,2.3v2.2c0,1.3-1,2.3-2.2,2.3h-21.9c-1.2,0-2.2,1-2.2,2.3
	v6.1c0,1.3,0.1,2.9,0.3,3.7l0.4,0.3c0.5,0.5,1.5,0.6,2.9,0.6h21.5c1.2,0,2.2,1,2.2,2.3v2.3c0,1.3-1,2.3-2.2,2.3H264.6z"/>
</svg>
